<svg width="48" height="48" viewBox="0 0 48 48" fill="none" xmlns="http://www.w3.org/2000/svg">
<rect width="48" height="48" rx="21" fill="#515151"/>
<mask id="mask0" mask-type="alpha" maskUnits="userSpaceOnUse" x="0" y="0" width="48" height="48">
<path fill-rule="evenodd" clip-rule="evenodd" d="M34.56 5.76H13.44C9.19845 5.76 5.76 9.19845 5.76 13.44V34.56C5.76 38.8015 9.19845 42.24 13.44 42.24H34.56C38.8015 42.24 42.24 38.8015 42.24 34.56V13.44C42.24 9.19845 38.8015 5.76 34.56 5.76ZM13.44 0C6.01729 0 0 6.01729 0 13.44V34.56C0 41.9827 6.01729 48 13.44 48H34.56C41.9827 48 48 41.9827 48 34.56V13.44C48 6.01729 41.9827 0 34.56 0H13.44Z" fill="#00BD00"/>
<path d="M15.36 13.44H26.9819C29.5131 13.44 31.4063 14.0019 32.6616 15.1256C33.9272 16.2493 34.56 17.8484 34.56 19.9229C34.56 22.0551 33.8706 23.7215 32.4918 24.922C31.1233 26.1226 29.0295 26.7228 26.2102 26.7228H22.3825V34.56H15.36V13.44ZM22.3825 22.4441H24.0957C25.4436 22.4441 26.3902 22.228 26.9356 21.7958C27.4809 21.354 27.7536 20.7921 27.7536 20.1102C27.7536 19.4475 27.5169 18.8857 27.0436 18.4247C26.5703 17.9637 25.6803 17.7332 24.3735 17.7332H22.3825V22.4441Z" fill="black"/>
</mask>
<g mask="url(#mask0)">
<rect width="48" height="48" fill="#00BD00"/>
</g>
</svg>
