<svg width="64" height="64" viewBox="0 0 64 64" fill="none" xmlns="http://www.w3.org/2000/svg">
<mask id="mask0" mask-type="alpha" maskUnits="userSpaceOnUse" x="0" y="0" width="64" height="64">
<path fill-rule="evenodd" clip-rule="evenodd" d="M46.08 7.68H17.92C12.2646 7.68 7.68 12.2646 7.68 17.92V46.08C7.68 51.7354 12.2646 56.32 17.92 56.32H46.08C51.7354 56.32 56.32 51.7354 56.32 46.08V17.92C56.32 12.2646 51.7354 7.68 46.08 7.68ZM17.92 0C8.02306 0 0 8.02306 0 17.92V46.08C0 55.9769 8.02306 64 17.92 64H46.08C55.9769 64 64 55.9769 64 46.08V17.92C64 8.02306 55.9769 0 46.08 0H17.92Z" fill="#00BD00"/>
<path d="M20.48 17.92H35.9758C39.3507 17.92 41.8751 18.6691 43.5488 20.1674C45.2363 21.6657 46.08 23.7979 46.08 26.5639C46.08 29.4068 45.1608 31.6286 43.3224 33.2294C41.4978 34.8301 38.7059 35.6304 34.9469 35.6304H29.8433V46.08H20.48V17.92ZM29.8433 29.9255H32.1276C33.9248 29.9255 35.187 29.6373 35.9141 29.0611C36.6412 28.472 37.0048 27.7229 37.0048 26.8136C37.0048 25.93 36.6892 25.1809 36.0581 24.5662C35.4271 23.9515 34.2403 23.6442 32.498 23.6442H29.8433V29.9255Z" fill="black"/>
</mask>
<g mask="url(#mask0)">
<rect width="64" height="64" fill="#0C0C0D" fill-opacity="0.8"/>
</g>
</svg>
