<svg width="64" height="64" viewBox="0 0 64 64" fill="none" xmlns="http://www.w3.org/2000/svg">
<mask id="mask0" mask-type="alpha" maskUnits="userSpaceOnUse" x="0" y="0" width="63" height="63">
<path fill-rule="evenodd" clip-rule="evenodd" d="M45.36 7.56H17.64C12.073 7.56 7.56 12.073 7.56 17.64V45.36C7.56 50.927 12.073 55.44 17.64 55.44H45.36C50.927 55.44 55.44 50.927 55.44 45.36V17.64C55.44 12.073 50.927 7.56 45.36 7.56ZM17.64 0C7.8977 0 0 7.8977 0 17.64V45.36C0 55.1023 7.8977 63 17.64 63H45.36C55.1023 63 63 55.1023 63 45.36V17.64C63 7.8977 55.1023 0 45.36 0H17.64Z" fill="#00BD00"/>
<path d="M20.16 17.64H35.4137C38.7359 17.64 41.2208 18.3774 42.8684 19.8523C44.5295 21.3272 45.36 23.426 45.36 26.1489C45.36 28.9473 44.4552 31.1344 42.6455 32.7102C40.8494 34.2859 38.1012 35.0737 34.4008 35.0737H29.377V45.36H20.16V17.64ZM29.377 29.4579H31.6256C33.3947 29.4579 34.6372 29.1742 35.3529 28.607C36.0687 28.0271 36.4266 27.2897 36.4266 26.3947C36.4266 25.5249 36.116 24.7874 35.4947 24.1824C34.8735 23.5773 33.7053 23.2748 31.9902 23.2748H29.377V29.4579Z" fill="black"/>
</mask>
<g mask="url(#mask0)">
<rect width="63" height="63" fill="#00BD00"/>
</g>
</svg>
